<mxfile host="65bd71144e">
    <diagram id="ZSEyjlcxfWYCcpoctX4i" name="Page-1">
        <mxGraphModel dx="3900" dy="2233" grid="1" gridSize="10" guides="1" tooltips="1" connect="1" arrows="1" fold="1" page="0" pageScale="1" pageWidth="850" pageHeight="1100" math="0" shadow="0">
            <root>
                <mxCell id="0"/>
                <mxCell id="1" parent="0"/>
                <mxCell id="32" value="" style="group" vertex="1" connectable="0" parent="1">
                    <mxGeometry x="-550" y="180" width="310" height="640" as="geometry"/>
                </mxCell>
                <mxCell id="50" value="" style="rounded=0;whiteSpace=wrap;html=1;fontSize=20;" vertex="1" parent="32">
                    <mxGeometry x="-360" y="-40" width="670" height="470" as="geometry"/>
                </mxCell>
                <mxCell id="33" value="" style="rounded=0;whiteSpace=wrap;html=1;strokeColor=#23445d;fillColor=#bac8d3;" vertex="1" parent="32">
                    <mxGeometry width="280" height="390" as="geometry"/>
                </mxCell>
                <mxCell id="34" value="&lt;font color=&quot;#030303&quot;&gt;database/influxDB&lt;br&gt;&lt;/font&gt;" style="shape=process;whiteSpace=wrap;html=1;backgroundOutline=1;strokeColor=#ae4132;fillColor=#fad9d5;" vertex="1" parent="32">
                    <mxGeometry x="41.48148148148148" y="45" width="197.03703703703704" height="90" as="geometry"/>
                </mxCell>
                <mxCell id="35" value="&lt;font color=&quot;#030303&quot;&gt;view/nicegui_app&lt;br&gt;&lt;/font&gt;" style="shape=process;whiteSpace=wrap;html=1;backgroundOutline=1;strokeColor=#ae4132;fillColor=#fad9d5;" vertex="1" parent="32">
                    <mxGeometry x="41.48148148148148" y="150" width="197.03703703703704" height="190" as="geometry"/>
                </mxCell>
                <mxCell id="36" value="&lt;font color=&quot;#030303&quot;&gt;rokitAPI/FastAPI&lt;br&gt;&lt;/font&gt;" style="shape=process;whiteSpace=wrap;html=1;backgroundOutline=1;strokeColor=#10739e;fillColor=#b1ddf0;" vertex="1" parent="32">
                    <mxGeometry x="67.4074074074074" y="270" width="145.1851851851852" height="60" as="geometry"/>
                </mxCell>
                <mxCell id="37" value="&lt;font style=&quot;font-size: 17px;&quot; color=&quot;#030303&quot;&gt;&lt;span style=&quot;&quot;&gt;ro&lt;/span&gt;&lt;font style=&quot;font-size: 17px;&quot;&gt;k&lt;/font&gt;&lt;span style=&quot;&quot;&gt;it-stack&lt;/span&gt;&lt;/font&gt;" style="text;html=1;align=center;verticalAlign=middle;whiteSpace=wrap;rounded=0;" vertex="1" parent="32">
                    <mxGeometry x="72.5925925925926" y="15" width="134.8148148148148" height="30" as="geometry"/>
                </mxCell>
                <mxCell id="49" value="" style="rounded=0;whiteSpace=wrap;html=1;fontSize=20;" vertex="1" parent="1">
                    <mxGeometry x="-120" y="40" width="1330" height="770" as="geometry"/>
                </mxCell>
                <mxCell id="13" style="edgeStyle=none;html=1;exitX=1;exitY=0;exitDx=0;exitDy=42.5;exitPerimeter=0;fontColor=#030303;" parent="1" source="3" target="11" edge="1">
                    <mxGeometry relative="1" as="geometry"/>
                </mxCell>
                <mxCell id="3" value="&lt;font style=&quot;font-size: 20px;&quot; color=&quot;#000000&quot;&gt;influxDB&amp;nbsp;&lt;/font&gt;" style="shape=cylinder3;whiteSpace=wrap;html=1;boundedLbl=1;backgroundOutline=1;size=15;fillColor=#1ba1e2;fontColor=#ffffff;strokeColor=#006EAF;" parent="1" vertex="1">
                    <mxGeometry x="-70" y="220" width="140" height="140" as="geometry"/>
                </mxCell>
                <mxCell id="15" style="edgeStyle=none;html=1;entryX=1;entryY=0.5;entryDx=0;entryDy=0;fontColor=#030303;" parent="1" source="8" target="11" edge="1">
                    <mxGeometry relative="1" as="geometry"/>
                </mxCell>
                <mxCell id="8" value="&lt;font style=&quot;font-size: 25px;&quot; color=&quot;#030303&quot;&gt;NiceGUI&lt;/font&gt;" style="strokeWidth=1;shadow=0;dashed=0;align=center;html=1;shape=mxgraph.mockup.containers.browserWindow;rSize=0;strokeColor2=#008cff;strokeColor3=#c4c4c4;mainText=,;recursiveResize=0;strokeColor=#b46504;fillColor=#fad7ac;" parent="1" vertex="1">
                    <mxGeometry x="620" y="160" width="520" height="350" as="geometry"/>
                </mxCell>
                <mxCell id="9" value="Page 1" style="strokeWidth=1;shadow=0;dashed=0;align=center;html=1;shape=mxgraph.mockup.containers.anchor;fontSize=17;fontColor=#666666;align=left;strokeColor=#000000;gradientColor=none;" parent="8" vertex="1">
                    <mxGeometry x="60" y="12" width="110" height="26" as="geometry"/>
                </mxCell>
                <mxCell id="10" value="https://www.draw.io" style="strokeWidth=1;shadow=0;dashed=0;align=center;html=1;shape=mxgraph.mockup.containers.anchor;rSize=0;fontSize=17;fontColor=#666666;align=left;strokeColor=#000000;gradientColor=none;" parent="8" vertex="1">
                    <mxGeometry x="130" y="60" width="250" height="26" as="geometry"/>
                </mxCell>
                <mxCell id="12" style="edgeStyle=none;html=1;exitX=0;exitY=0.5;exitDx=0;exitDy=0;entryX=1.021;entryY=0.607;entryDx=0;entryDy=0;entryPerimeter=0;fontColor=#030303;" parent="1" source="11" target="3" edge="1">
                    <mxGeometry relative="1" as="geometry"/>
                </mxCell>
                <mxCell id="14" style="edgeStyle=none;html=1;exitX=1;exitY=0.25;exitDx=0;exitDy=0;entryX=0.019;entryY=0.229;entryDx=0;entryDy=0;entryPerimeter=0;fontColor=#030303;" parent="1" source="11" target="8" edge="1">
                    <mxGeometry relative="1" as="geometry"/>
                </mxCell>
                <mxCell id="46" style="edgeStyle=none;html=1;exitX=0.5;exitY=1;exitDx=0;exitDy=0;fontSize=20;fontColor=#000000;" edge="1" parent="1" source="11" target="45">
                    <mxGeometry relative="1" as="geometry"/>
                </mxCell>
                <mxCell id="11" value="&lt;font style=&quot;font-size: 20px;&quot; color=&quot;#030303&quot;&gt;rokitAPI&lt;/font&gt;" style="shape=process;whiteSpace=wrap;html=1;backgroundOutline=1;strokeColor=#ae4132;fillColor=#fad9d5;" parent="1" vertex="1">
                    <mxGeometry x="250" y="245" width="190" height="90" as="geometry"/>
                </mxCell>
                <mxCell id="29" value="" style="group" vertex="1" connectable="0" parent="1">
                    <mxGeometry x="-870" y="180" width="270" height="180" as="geometry"/>
                </mxCell>
                <mxCell id="26" value="" style="rounded=0;whiteSpace=wrap;html=1;strokeColor=#23445d;fillColor=#bac8d3;" parent="29" vertex="1">
                    <mxGeometry width="270" height="180" as="geometry"/>
                </mxCell>
                <mxCell id="21" value="&lt;font color=&quot;#030303&quot;&gt;Contollers/custom_contrllers&lt;/font&gt;" style="shape=process;whiteSpace=wrap;html=1;backgroundOutline=1;strokeColor=#ae4132;fillColor=#fad9d5;" parent="29" vertex="1">
                    <mxGeometry x="50" y="60" width="200" height="90" as="geometry"/>
                </mxCell>
                <mxCell id="27" value="&lt;font style=&quot;font-size: 17px;&quot; color=&quot;#030303&quot;&gt;&lt;span style=&quot;&quot;&gt;ro&lt;/span&gt;&lt;font style=&quot;font-size: 17px;&quot;&gt;k&lt;/font&gt;&lt;span style=&quot;&quot;&gt;it-controllers&lt;/span&gt;&lt;/font&gt;" style="text;html=1;align=center;verticalAlign=middle;whiteSpace=wrap;rounded=0;" vertex="1" parent="29">
                    <mxGeometry x="60" y="10" width="130" height="30" as="geometry"/>
                </mxCell>
                <mxCell id="43" value="" style="group" vertex="1" connectable="0" parent="1">
                    <mxGeometry x="250" y="520" width="230" height="190" as="geometry"/>
                </mxCell>
                <mxCell id="45" value="" style="rounded=0;whiteSpace=wrap;html=1;fontSize=20;fillColor=#eeeeee;strokeColor=#36393d;" vertex="1" parent="43">
                    <mxGeometry x="-40" y="-25.90909090909091" width="270" height="215.9090909090909" as="geometry"/>
                </mxCell>
                <mxCell id="38" value="" style="shape=card;whiteSpace=wrap;html=1;fontSize=20;fillColor=#d0cee2;strokeColor=#56517e;" vertex="1" parent="43">
                    <mxGeometry width="80" height="86.36363636363636" as="geometry"/>
                </mxCell>
                <mxCell id="39" value="" style="shape=card;whiteSpace=wrap;html=1;fontSize=20;fillColor=#d0cee2;strokeColor=#56517e;" vertex="1" parent="43">
                    <mxGeometry x="20" y="17.272727272727273" width="80" height="86.36363636363636" as="geometry"/>
                </mxCell>
                <mxCell id="40" value="" style="shape=card;whiteSpace=wrap;html=1;fontSize=20;fillColor=#d0cee2;strokeColor=#56517e;" vertex="1" parent="43">
                    <mxGeometry x="40" y="34.54545454545455" width="80" height="86.36363636363636" as="geometry"/>
                </mxCell>
                <mxCell id="41" value="" style="shape=card;whiteSpace=wrap;html=1;fontSize=20;fillColor=#d0cee2;strokeColor=#56517e;" vertex="1" parent="43">
                    <mxGeometry x="60" y="51.81818181818182" width="80" height="86.36363636363636" as="geometry"/>
                </mxCell>
                <mxCell id="42" value="" style="shape=card;whiteSpace=wrap;html=1;fontSize=20;fillColor=#d0cee2;strokeColor=#56517e;" vertex="1" parent="43">
                    <mxGeometry x="80" y="69.0909090909091" width="80" height="86.36363636363636" as="geometry"/>
                </mxCell>
                <mxCell id="47" value="&lt;font style=&quot;font-size: 17px;&quot; color=&quot;#030303&quot;&gt;&lt;span style=&quot;&quot;&gt;ro&lt;/span&gt;&lt;font style=&quot;font-size: 17px;&quot;&gt;k&lt;/font&gt;&lt;span style=&quot;&quot;&gt;it-controllers&lt;/span&gt;&lt;/font&gt;" style="text;html=1;align=center;verticalAlign=middle;whiteSpace=wrap;rounded=0;" vertex="1" parent="43">
                    <mxGeometry x="20" y="-25.90909090909091" width="130" height="25.90909090909091" as="geometry"/>
                </mxCell>
            </root>
        </mxGraphModel>
    </diagram>
</mxfile>